<svg width="1920" height="1080" viewBox="0 0 1920 1080" fill="none" xmlns="http://www.w3.org/2000/svg">
<g clip-path="url(#clip0_particles)">
<!-- Bottom section - very dense, larger particles -->
<circle cx="80" cy="980" r="12" fill="#0500FF" fill-opacity="0.08"/>
<circle cx="160" cy="960" r="14" fill="#0500FF" fill-opacity="0.09"/>
<circle cx="240" cy="1000" r="10" fill="#0500FF" fill-opacity="0.07"/>
<circle cx="320" cy="940" r="16" fill="#0500FF" fill-opacity="0.08"/>
<circle cx="400" cy="1020" r="12" fill="#0500FF" fill-opacity="0.09"/>
<circle cx="480" cy="970" r="14" fill="#0500FF" fill-opacity="0.08"/>
<circle cx="560" cy="990" r="11" fill="#0500FF" fill-opacity="0.07"/>
<circle cx="640" cy="1010" r="13" fill="#0500FF" fill-opacity="0.08"/>
<circle cx="720" cy="950" r="15" fill="#0500FF" fill-opacity="0.09"/>
<circle cx="800" cy="1000" r="12" fill="#0500FF" fill-opacity="0.08"/>
<circle cx="880" cy="930" r="14" fill="#0500FF" fill-opacity="0.08"/>
<circle cx="960" cy="980" r="16" fill="#0500FF" fill-opacity="0.09"/>
<circle cx="1040" cy="1020" r="11" fill="#0500FF" fill-opacity="0.07"/>
<circle cx="1120" cy="960" r="13" fill="#0500FF" fill-opacity="0.08"/>
<circle cx="1200" cy="990" r="15" fill="#0500FF" fill-opacity="0.09"/>
<circle cx="1280" cy="1010" r="12" fill="#0500FF" fill-opacity="0.08"/>
<circle cx="1360" cy="940" r="14" fill="#0500FF" fill-opacity="0.08"/>
<circle cx="1440" cy="1000" r="10" fill="#0500FF" fill-opacity="0.07"/>
<circle cx="1520" cy="970" r="16" fill="#0500FF" fill-opacity="0.09"/>
<circle cx="1600" cy="1020" r="13" fill="#0500FF" fill-opacity="0.08"/>
<circle cx="1680" cy="950" r="15" fill="#0500FF" fill-opacity="0.08"/>
<circle cx="1760" cy="990" r="11" fill="#0500FF" fill-opacity="0.07"/>
<circle cx="1840" cy="1010" r="14" fill="#0500FF" fill-opacity="0.09"/>

<circle cx="120" cy="900" r="8" fill="#0500FF" fill-opacity="0.06"/>
<circle cx="200" cy="880" r="9" fill="#0500FF" fill-opacity="0.07"/>
<circle cx="280" cy="920" r="7" fill="#0500FF" fill-opacity="0.06"/>
<circle cx="360" cy="860" r="10" fill="#0500FF" fill-opacity="0.07"/>
<circle cx="440" cy="910" r="8" fill="#0500FF" fill-opacity="0.06"/>
<circle cx="520" cy="890" r="9" fill="#0500FF" fill-opacity="0.07"/>
<circle cx="600" cy="870" r="7" fill="#0500FF" fill-opacity="0.06"/>
<circle cx="680" cy="920" r="10" fill="#0500FF" fill-opacity="0.07"/>
<circle cx="760" cy="880" r="8" fill="#0500FF" fill-opacity="0.06"/>
<circle cx="840" cy="910" r="9" fill="#0500FF" fill-opacity="0.07"/>
<circle cx="920" cy="860" r="7" fill="#0500FF" fill-opacity="0.06"/>
<circle cx="1000" cy="900" r="10" fill="#0500FF" fill-opacity="0.07"/>
<circle cx="1080" cy="890" r="8" fill="#0500FF" fill-opacity="0.06"/>
<circle cx="1160" cy="870" r="9" fill="#0500FF" fill-opacity="0.07"/>
<circle cx="1240" cy="920" r="7" fill="#0500FF" fill-opacity="0.06"/>
<circle cx="1320" cy="880" r="10" fill="#0500FF" fill-opacity="0.07"/>
<circle cx="1400" cy="910" r="8" fill="#0500FF" fill-opacity="0.06"/>
<circle cx="1480" cy="860" r="9" fill="#0500FF" fill-opacity="0.07"/>
<circle cx="1560" cy="900" r="7" fill="#0500FF" fill-opacity="0.06"/>
<circle cx="1640" cy="890" r="10" fill="#0500FF" fill-opacity="0.07"/>
<circle cx="1720" cy="870" r="8" fill="#0500FF" fill-opacity="0.06"/>
<circle cx="1800" cy="920" r="9" fill="#0500FF" fill-opacity="0.07"/>

<!-- Mid-bottom section - dense -->
<circle cx="90" cy="780" r="7" fill="#0500FF" fill-opacity="0.05"/>
<circle cx="170" cy="800" r="8" fill="#0500FF" fill-opacity="0.06"/>
<circle cx="250" cy="760" r="6" fill="#0500FF" fill-opacity="0.05"/>
<circle cx="330" cy="820" r="9" fill="#0500FF" fill-opacity="0.06"/>
<circle cx="410" cy="790" r="7" fill="#0500FF" fill-opacity="0.05"/>
<circle cx="490" cy="810" r="8" fill="#0500FF" fill-opacity="0.06"/>
<circle cx="570" cy="770" r="6" fill="#0500FF" fill-opacity="0.05"/>
<circle cx="650" cy="800" r="9" fill="#0500FF" fill-opacity="0.06"/>
<circle cx="730" cy="820" r="7" fill="#0500FF" fill-opacity="0.05"/>
<circle cx="810" cy="780" r="8" fill="#0500FF" fill-opacity="0.06"/>
<circle cx="890" cy="810" r="6" fill="#0500FF" fill-opacity="0.05"/>
<circle cx="970" cy="760" r="9" fill="#0500FF" fill-opacity="0.06"/>
<circle cx="1050" cy="800" r="7" fill="#0500FF" fill-opacity="0.05"/>
<circle cx="1130" cy="790" r="8" fill="#0500FF" fill-opacity="0.06"/>
<circle cx="1210" cy="820" r="6" fill="#0500FF" fill-opacity="0.05"/>
<circle cx="1290" cy="770" r="9" fill="#0500FF" fill-opacity="0.06"/>
<circle cx="1370" cy="810" r="7" fill="#0500FF" fill-opacity="0.05"/>
<circle cx="1450" cy="780" r="8" fill="#0500FF" fill-opacity="0.06"/>
<circle cx="1530" cy="820" r="6" fill="#0500FF" fill-opacity="0.05"/>
<circle cx="1610" cy="760" r="9" fill="#0500FF" fill-opacity="0.06"/>
<circle cx="1690" cy="800" r="7" fill="#0500FF" fill-opacity="0.05"/>
<circle cx="1770" cy="790" r="8" fill="#0500FF" fill-opacity="0.06"/>
<circle cx="1850" cy="810" r="6" fill="#0500FF" fill-opacity="0.05"/>

<circle cx="140" cy="720" r="5" fill="#0500FF" fill-opacity="0.04"/>
<circle cx="220" cy="680" r="6" fill="#0500FF" fill-opacity="0.05"/>
<circle cx="300" cy="740" r="5" fill="#0500FF" fill-opacity="0.04"/>
<circle cx="380" cy="700" r="7" fill="#0500FF" fill-opacity="0.05"/>
<circle cx="460" cy="730" r="5" fill="#0500FF" fill-opacity="0.04"/>
<circle cx="540" cy="690" r="6" fill="#0500FF" fill-opacity="0.05"/>
<circle cx="620" cy="720" r="5" fill="#0500FF" fill-opacity="0.04"/>
<circle cx="700" cy="710" r="7" fill="#0500FF" fill-opacity="0.05"/>
<circle cx="780" cy="740" r="5" fill="#0500FF" fill-opacity="0.04"/>
<circle cx="860" cy="680" r="6" fill="#0500FF" fill-opacity="0.05"/>
<circle cx="940" cy="720" r="5" fill="#0500FF" fill-opacity="0.04"/>
<circle cx="1020" cy="700" r="7" fill="#0500FF" fill-opacity="0.05"/>
<circle cx="1100" cy="730" r="5" fill="#0500FF" fill-opacity="0.04"/>
<circle cx="1180" cy="690" r="6" fill="#0500FF" fill-opacity="0.05"/>
<circle cx="1260" cy="740" r="5" fill="#0500FF" fill-opacity="0.04"/>
<circle cx="1340" cy="710" r="7" fill="#0500FF" fill-opacity="0.05"/>
<circle cx="1420" cy="720" r="5" fill="#0500FF" fill-opacity="0.04"/>
<circle cx="1500" cy="680" r="6" fill="#0500FF" fill-opacity="0.05"/>
<circle cx="1580" cy="730" r="5" fill="#0500FF" fill-opacity="0.04"/>
<circle cx="1660" cy="700" r="7" fill="#0500FF" fill-opacity="0.05"/>
<circle cx="1740" cy="740" r="5" fill="#0500FF" fill-opacity="0.04"/>
<circle cx="1820" cy="690" r="6" fill="#0500FF" fill-opacity="0.05"/>

<!-- Middle section - medium density -->
<circle cx="100" cy="600" r="5" fill="#0500FF" fill-opacity="0.04"/>
<circle cx="180" cy="620" r="6" fill="#0500FF" fill-opacity="0.04"/>
<circle cx="260" cy="580" r="4" fill="#0500FF" fill-opacity="0.03"/>
<circle cx="340" cy="640" r="6" fill="#0500FF" fill-opacity="0.04"/>
<circle cx="420" cy="610" r="5" fill="#0500FF" fill-opacity="0.04"/>
<circle cx="500" cy="590" r="4" fill="#0500FF" fill-opacity="0.03"/>
<circle cx="580" cy="620" r="6" fill="#0500FF" fill-opacity="0.04"/>
<circle cx="660" cy="600" r="5" fill="#0500FF" fill-opacity="0.04"/>
<circle cx="740" cy="640" r="4" fill="#0500FF" fill-opacity="0.03"/>
<circle cx="820" cy="580" r="6" fill="#0500FF" fill-opacity="0.04"/>
<circle cx="900" cy="610" r="5" fill="#0500FF" fill-opacity="0.04"/>
<circle cx="980" cy="620" r="4" fill="#0500FF" fill-opacity="0.03"/>
<circle cx="1060" cy="590" r="6" fill="#0500FF" fill-opacity="0.04"/>
<circle cx="1140" cy="640" r="5" fill="#0500FF" fill-opacity="0.04"/>
<circle cx="1220" cy="600" r="4" fill="#0500FF" fill-opacity="0.03"/>
<circle cx="1300" cy="620" r="6" fill="#0500FF" fill-opacity="0.04"/>
<circle cx="1380" cy="580" r="5" fill="#0500FF" fill-opacity="0.04"/>
<circle cx="1460" cy="610" r="4" fill="#0500FF" fill-opacity="0.03"/>
<circle cx="1540" cy="640" r="6" fill="#0500FF" fill-opacity="0.04"/>
<circle cx="1620" cy="590" r="5" fill="#0500FF" fill-opacity="0.04"/>
<circle cx="1700" cy="620" r="4" fill="#0500FF" fill-opacity="0.03"/>
<circle cx="1780" cy="600" r="6" fill="#0500FF" fill-opacity="0.04"/>
<circle cx="1860" cy="610" r="5" fill="#0500FF" fill-opacity="0.04"/>

<circle cx="130" cy="520" r="4" fill="#0500FF" fill-opacity="0.03"/>
<circle cx="210" cy="480" r="5" fill="#0500FF" fill-opacity="0.03"/>
<circle cx="290" cy="540" r="4" fill="#0500FF" fill-opacity="0.03"/>
<circle cx="370" cy="500" r="5" fill="#0500FF" fill-opacity="0.03"/>
<circle cx="450" cy="530" r="4" fill="#0500FF" fill-opacity="0.03"/>
<circle cx="530" cy="510" r="5" fill="#0500FF" fill-opacity="0.03"/>
<circle cx="610" cy="490" r="4" fill="#0500FF" fill-opacity="0.03"/>
<circle cx="690" cy="540" r="5" fill="#0500FF" fill-opacity="0.03"/>
<circle cx="770" cy="520" r="4" fill="#0500FF" fill-opacity="0.03"/>
<circle cx="850" cy="500" r="5" fill="#0500FF" fill-opacity="0.03"/>
<circle cx="930" cy="480" r="4" fill="#0500FF" fill-opacity="0.03"/>
<circle cx="1010" cy="530" r="5" fill="#0500FF" fill-opacity="0.03"/>
<circle cx="1090" cy="510" r="4" fill="#0500FF" fill-opacity="0.03"/>
<circle cx="1170" cy="540" r="5" fill="#0500FF" fill-opacity="0.03"/>
<circle cx="1250" cy="490" r="4" fill="#0500FF" fill-opacity="0.03"/>
<circle cx="1330" cy="520" r="5" fill="#0500FF" fill-opacity="0.03"/>
<circle cx="1410" cy="500" r="4" fill="#0500FF" fill-opacity="0.03"/>
<circle cx="1490" cy="480" r="5" fill="#0500FF" fill-opacity="0.03"/>
<circle cx="1570" cy="540" r="4" fill="#0500FF" fill-opacity="0.03"/>
<circle cx="1650" cy="510" r="5" fill="#0500FF" fill-opacity="0.03"/>
<circle cx="1730" cy="530" r="4" fill="#0500FF" fill-opacity="0.03"/>
<circle cx="1810" cy="490" r="5" fill="#0500FF" fill-opacity="0.03"/>

<!-- Upper-middle section - moderate density -->
<circle cx="110" cy="420" r="4" fill="#0500FF" fill-opacity="0.03"/>
<circle cx="190" cy="380" r="4" fill="#0500FF" fill-opacity="0.02"/>
<circle cx="270" cy="440" r="3" fill="#0500FF" fill-opacity="0.03"/>
<circle cx="350" cy="400" r="4" fill="#0500FF" fill-opacity="0.03"/>
<circle cx="430" cy="430" r="3" fill="#0500FF" fill-opacity="0.02"/>
<circle cx="510" cy="410" r="4" fill="#0500FF" fill-opacity="0.03"/>
<circle cx="590" cy="390" r="3" fill="#0500FF" fill-opacity="0.02"/>
<circle cx="670" cy="440" r="4" fill="#0500FF" fill-opacity="0.03"/>
<circle cx="750" cy="420" r="3" fill="#0500FF" fill-opacity="0.02"/>
<circle cx="830" cy="400" r="4" fill="#0500FF" fill-opacity="0.03"/>
<circle cx="910" cy="380" r="3" fill="#0500FF" fill-opacity="0.02"/>
<circle cx="990" cy="430" r="4" fill="#0500FF" fill-opacity="0.03"/>
<circle cx="1070" cy="410" r="3" fill="#0500FF" fill-opacity="0.02"/>
<circle cx="1150" cy="440" r="4" fill="#0500FF" fill-opacity="0.03"/>
<circle cx="1230" cy="390" r="3" fill="#0500FF" fill-opacity="0.02"/>
<circle cx="1310" cy="420" r="4" fill="#0500FF" fill-opacity="0.03"/>
<circle cx="1390" cy="400" r="3" fill="#0500FF" fill-opacity="0.02"/>
<circle cx="1470" cy="380" r="4" fill="#0500FF" fill-opacity="0.03"/>
<circle cx="1550" cy="440" r="3" fill="#0500FF" fill-opacity="0.02"/>
<circle cx="1630" cy="410" r="4" fill="#0500FF" fill-opacity="0.03"/>
<circle cx="1710" cy="430" r="3" fill="#0500FF" fill-opacity="0.02"/>
<circle cx="1790" cy="390" r="4" fill="#0500FF" fill-opacity="0.03"/>
<circle cx="1870" cy="420" r="3" fill="#0500FF" fill-opacity="0.02"/>

<!-- Upper section - sparse -->
<circle cx="140" cy="320" r="3" fill="#0500FF" fill-opacity="0.02"/>
<circle cx="220" cy="280" r="3" fill="#0500FF" fill-opacity="0.02"/>
<circle cx="300" cy="340" r="3" fill="#0500FF" fill-opacity="0.02"/>
<circle cx="380" cy="300" r="3" fill="#0500FF" fill-opacity="0.02"/>
<circle cx="460" cy="330" r="3" fill="#0500FF" fill-opacity="0.02"/>
<circle cx="540" cy="310" r="3" fill="#0500FF" fill-opacity="0.02"/>
<circle cx="620" cy="290" r="3" fill="#0500FF" fill-opacity="0.02"/>
<circle cx="700" cy="340" r="3" fill="#0500FF" fill-opacity="0.02"/>
<circle cx="780" cy="320" r="3" fill="#0500FF" fill-opacity="0.02"/>
<circle cx="860" cy="300" r="3" fill="#0500FF" fill-opacity="0.02"/>
<circle cx="940" cy="280" r="3" fill="#0500FF" fill-opacity="0.02"/>
<circle cx="1020" cy="330" r="3" fill="#0500FF" fill-opacity="0.02"/>
<circle cx="1100" cy="310" r="3" fill="#0500FF" fill-opacity="0.02"/>
<circle cx="1180" cy="340" r="3" fill="#0500FF" fill-opacity="0.02"/>
<circle cx="1260" cy="290" r="3" fill="#0500FF" fill-opacity="0.02"/>
<circle cx="1340" cy="320" r="3" fill="#0500FF" fill-opacity="0.02"/>
<circle cx="1420" cy="300" r="3" fill="#0500FF" fill-opacity="0.02"/>
<circle cx="1500" cy="280" r="3" fill="#0500FF" fill-opacity="0.02"/>
<circle cx="1580" cy="340" r="3" fill="#0500FF" fill-opacity="0.02"/>
<circle cx="1660" cy="310" r="3" fill="#0500FF" fill-opacity="0.02"/>
<circle cx="1740" cy="330" r="3" fill="#0500FF" fill-opacity="0.02"/>
<circle cx="1820" cy="290" r="3" fill="#0500FF" fill-opacity="0.02"/>

<!-- Top section - very sparse -->
<circle cx="160" cy="220" r="3" fill="#0500FF" fill-opacity="0.02"/>
<circle cx="320" cy="180" r="2" fill="#0500FF" fill-opacity="0.01"/>
<circle cx="480" cy="240" r="3" fill="#0500FF" fill-opacity="0.02"/>
<circle cx="640" cy="200" r="2" fill="#0500FF" fill-opacity="0.01"/>
<circle cx="800" cy="220" r="3" fill="#0500FF" fill-opacity="0.02"/>
<circle cx="960" cy="190" r="2" fill="#0500FF" fill-opacity="0.01"/>
<circle cx="1120" cy="240" r="3" fill="#0500FF" fill-opacity="0.02"/>
<circle cx="1280" cy="210" r="2" fill="#0500FF" fill-opacity="0.01"/>
<circle cx="1440" cy="180" r="3" fill="#0500FF" fill-opacity="0.02"/>
<circle cx="1600" cy="230" r="2" fill="#0500FF" fill-opacity="0.01"/>
<circle cx="1760" cy="200" r="3" fill="#0500FF" fill-opacity="0.02"/>

<circle cx="240" cy="140" r="2" fill="#0500FF" fill-opacity="0.01"/>
<circle cx="400" cy="100" r="2" fill="#0500FF" fill-opacity="0.01"/>
<circle cx="560" cy="160" r="2" fill="#0500FF" fill-opacity="0.01"/>
<circle cx="720" cy="120" r="2" fill="#0500FF" fill-opacity="0.01"/>
<circle cx="880" cy="140" r="2" fill="#0500FF" fill-opacity="0.01"/>
<circle cx="1040" cy="100" r="2" fill="#0500FF" fill-opacity="0.01"/>
<circle cx="1200" cy="150" r="2" fill="#0500FF" fill-opacity="0.01"/>
<circle cx="1360" cy="130" r="2" fill="#0500FF" fill-opacity="0.01"/>
<circle cx="1520" cy="110" r="2" fill="#0500FF" fill-opacity="0.01"/>
<circle cx="1680" cy="160" r="2" fill="#0500FF" fill-opacity="0.01"/>
<circle cx="1840" cy="120" r="2" fill="#0500FF" fill-opacity="0.01"/>
</g>
<defs>
<clipPath id="clip0_particles">
<rect width="1920" height="1080" fill="white"/>
</clipPath>
</defs>
</svg>
