<svg width="142" height="27" viewBox="0 0 142 27" fill="none" xmlns="http://www.w3.org/2000/svg">
<path d="M129.562 26.1793V6.54297H134.842V9.96911H135.047C135.405 8.75036 136.006 7.8299 136.849 7.20774C137.693 6.57706 138.665 6.26172 139.764 6.26172C140.037 6.26172 140.331 6.27876 140.646 6.31286C140.962 6.34695 141.239 6.39382 141.477 6.45348V11.2859C141.222 11.2092 140.868 11.141 140.416 11.0813C139.964 11.0217 139.551 10.9918 139.176 10.9918C138.375 10.9918 137.659 11.1665 137.028 11.516C136.406 11.8569 135.912 12.3342 135.545 12.9478C135.188 13.5614 135.009 14.2688 135.009 15.07V26.1793H129.562Z" fill="black"/>
<path d="M119.874 26.5646C117.854 26.5646 116.116 26.1555 114.658 25.3374C113.21 24.5107 112.093 23.343 111.309 21.8345C110.525 20.3175 110.133 18.5234 110.133 16.4524C110.133 14.4325 110.525 12.6598 111.309 11.1342C112.093 9.60867 113.197 8.41974 114.62 7.56747C116.052 6.7152 117.731 6.28906 119.657 6.28906C120.952 6.28906 122.158 6.49787 123.275 6.91548C124.4 7.32457 125.38 7.94247 126.215 8.76918C127.059 9.59588 127.715 10.6357 128.184 11.8885C128.653 13.1328 128.887 14.5902 128.887 16.2607V17.7564H112.306V14.3814H123.761C123.761 13.5973 123.59 12.9027 123.249 12.2976C122.908 11.6925 122.435 11.2195 121.83 10.8786C121.234 10.5291 120.539 10.3544 119.746 10.3544C118.92 10.3544 118.187 10.5462 117.548 10.9297C116.917 11.3047 116.423 11.8118 116.065 12.451C115.707 13.0817 115.523 13.7848 115.515 14.5604V17.7692C115.515 18.7408 115.694 19.5803 116.052 20.2876C116.418 20.995 116.934 21.5405 117.599 21.924C118.263 22.3075 119.052 22.4993 119.964 22.4993C120.569 22.4993 121.123 22.4141 121.626 22.2436C122.129 22.0732 122.559 21.8175 122.917 21.4766C123.275 21.1357 123.548 20.718 123.735 20.2237L128.772 20.5561C128.516 21.7663 127.992 22.8232 127.2 23.7266C126.415 24.6215 125.401 25.3203 124.157 25.8232C122.921 26.3175 121.494 26.5646 119.874 26.5646Z" fill="black"/>
<path d="M110.466 6.54829V10.6392H98.6406V6.54829H110.466ZM101.325 1.84375H106.771V20.1506C106.771 20.6534 106.848 21.0455 107.001 21.3267C107.155 21.5994 107.368 21.7912 107.641 21.902C107.922 22.0128 108.246 22.0682 108.612 22.0682C108.868 22.0682 109.124 22.0469 109.379 22.0043C109.635 21.9531 109.831 21.9148 109.967 21.8892L110.824 25.9418C110.551 26.027 110.168 26.125 109.673 26.2358C109.179 26.3551 108.578 26.4276 107.871 26.4531C106.558 26.5043 105.408 26.3295 104.419 25.929C103.439 25.5284 102.676 24.9063 102.131 24.0625C101.585 23.2188 101.317 22.1534 101.325 20.8665V1.84375Z" fill="black"/>
<path d="M99.0277 12.1442L94.0419 12.451C93.9567 12.0249 93.7734 11.6413 93.4922 11.3004C93.2109 10.951 92.8402 10.674 92.38 10.4695C91.9283 10.2564 91.3871 10.1499 90.7564 10.1499C89.9126 10.1499 89.201 10.3288 88.6214 10.6868C88.0419 11.0362 87.7521 11.505 87.7521 12.093C87.7521 12.5618 87.9396 12.9581 88.3146 13.282C88.6896 13.6058 89.3331 13.8658 90.245 14.0618L93.799 14.7777C95.7081 15.1697 97.1314 15.8004 98.0689 16.6697C99.0064 17.5391 99.4751 18.6811 99.4751 20.0959C99.4751 21.3828 99.0959 22.5121 98.3374 23.4837C97.5874 24.4553 96.5561 25.2138 95.2436 25.7592C93.9396 26.2962 92.4354 26.5646 90.7308 26.5646C88.1314 26.5646 86.0604 26.0234 84.5178 24.9411C82.9837 23.8501 82.0845 22.3672 81.8203 20.4922L87.1768 20.2109C87.3388 21.0036 87.7308 21.6087 88.353 22.0263C88.9751 22.4354 89.772 22.6399 90.7436 22.6399C91.6981 22.6399 92.4652 22.4567 93.0447 22.0902C93.6328 21.7152 93.9311 21.2337 93.9396 20.6456C93.9311 20.1513 93.7223 19.7465 93.3132 19.4311C92.9041 19.1072 92.2734 18.8601 91.4212 18.6896L88.0206 18.0121C86.103 17.6286 84.6754 16.9638 83.7379 16.0178C82.8089 15.0717 82.3445 13.8658 82.3445 12.3999C82.3445 11.1385 82.6854 10.0518 83.3672 9.13991C84.0575 8.22798 85.0249 7.52486 86.2692 7.03054C87.522 6.53622 88.9879 6.28906 90.6669 6.28906C93.147 6.28906 95.0987 6.81321 96.522 7.86151C97.9538 8.9098 98.7891 10.3374 99.0277 12.1442Z" fill="black"/>
<path d="M69.5518 20.5312L69.5646 13.9986H70.3572L76.647 6.54545H82.8984L74.4482 16.4148H73.157L69.5518 20.5312ZM64.6172 26.1818V0H70.0632V26.1818H64.6172ZM76.8899 26.1818L71.1115 17.6293L74.7422 13.7812L83.2692 26.1818H76.8899Z" fill="black"/>
<path d="M55.2429 26.5646C53.2315 26.5646 51.5014 26.1385 50.0526 25.2862C48.6122 24.4254 47.5043 23.2322 46.7287 21.7067C45.9616 20.1811 45.5781 18.4254 45.5781 16.4396C45.5781 14.4283 45.9659 12.6641 46.7415 11.147C47.5256 9.62145 48.6378 8.43253 50.0781 7.58026C51.5185 6.71946 53.2315 6.28906 55.2173 6.28906C56.9304 6.28906 58.4304 6.60014 59.7173 7.2223C61.0043 7.84446 62.0227 8.71804 62.7727 9.84304C63.5227 10.968 63.9361 12.2891 64.0128 13.8061H58.8736C58.7287 12.826 58.3452 12.0376 57.723 11.4411C57.1094 10.8359 56.304 10.5334 55.3068 10.5334C54.4631 10.5334 53.7259 10.7635 53.0952 11.2237C52.473 11.6754 51.9872 12.3359 51.6378 13.2053C51.2884 14.0746 51.1136 15.1271 51.1136 16.3629C51.1136 17.6158 51.2841 18.6811 51.625 19.559C51.9744 20.4368 52.4645 21.1058 53.0952 21.5661C53.7259 22.0263 54.4631 22.2564 55.3068 22.2564C55.929 22.2564 56.4872 22.1286 56.9815 21.8729C57.4844 21.6172 57.8977 21.2465 58.2216 20.7607C58.554 20.2663 58.7713 19.674 58.8736 18.9837H64.0128C63.9276 20.4837 63.5185 21.8047 62.7855 22.9467C62.0611 24.0803 61.0597 24.9666 59.7812 25.6058C58.5028 26.245 56.9901 26.5646 55.2429 26.5646Z" fill="black"/>
<path d="M36.679 26.5646C34.6591 26.5646 32.9205 26.1555 31.4631 25.3374C30.0142 24.5107 28.8977 23.343 28.1136 21.8345C27.3295 20.3175 26.9375 18.5234 26.9375 16.4524C26.9375 14.4325 27.3295 12.6598 28.1136 11.1342C28.8977 9.60867 30.0014 8.41974 31.4247 7.56747C32.8565 6.7152 34.5355 6.28906 36.4616 6.28906C37.7571 6.28906 38.9631 6.49787 40.0795 6.91548C41.2045 7.32457 42.1847 7.94247 43.0199 8.76918C43.8636 9.59588 44.5199 10.6357 44.9886 11.8885C45.4574 13.1328 45.6918 14.5902 45.6918 16.2607V17.7564H29.1108V14.3814H40.5653C40.5653 13.5973 40.3949 12.9027 40.054 12.2976C39.7131 11.6925 39.2401 11.2195 38.6349 10.8786C38.0384 10.5291 37.3438 10.3544 36.5511 10.3544C35.7244 10.3544 34.9915 10.5462 34.3523 10.9297C33.7216 11.3047 33.2273 11.8118 32.8693 12.451C32.5114 13.0817 32.3281 13.7848 32.3196 14.5604V17.7692C32.3196 18.7408 32.4986 19.5803 32.8565 20.2876C33.223 20.995 33.7386 21.5405 34.4034 21.924C35.0682 22.3075 35.8565 22.4993 36.7685 22.4993C37.3736 22.4993 37.9276 22.4141 38.4304 22.2436C38.9332 22.0732 39.3636 21.8175 39.7216 21.4766C40.0795 21.1357 40.3523 20.718 40.5398 20.2237L45.5767 20.5561C45.321 21.7663 44.7969 22.8232 44.0043 23.7266C43.2202 24.6215 42.206 25.3203 40.9616 25.8232C39.7259 26.3175 38.2983 26.5646 36.679 26.5646Z" fill="black"/>
<path d="M14.9645 26.5014C13.473 26.5014 12.1222 26.1179 10.9119 25.3509C9.71023 24.5753 8.75568 23.4375 8.0483 21.9375C7.34943 20.429 7 18.5795 7 16.3892C7 14.1392 7.36222 12.2685 8.08665 10.777C8.81108 9.27699 9.77415 8.15625 10.9759 7.41477C12.1861 6.66477 13.5114 6.28977 14.9517 6.28977C16.0511 6.28977 16.9673 6.47727 17.7003 6.85227C18.4418 7.21875 19.0384 7.67898 19.4901 8.23295C19.9503 8.77841 20.2997 9.31534 20.5384 9.84375H20.7045V0H26.1378V26.1818H20.7685V23.0369H20.5384C20.2827 23.5824 19.9205 24.1236 19.4517 24.6605C18.9915 25.1889 18.3906 25.6278 17.6491 25.9773C16.9162 26.3267 16.0213 26.5014 14.9645 26.5014ZM16.6903 22.1676C17.5682 22.1676 18.3097 21.929 18.9148 21.4517C19.5284 20.9659 19.9972 20.2884 20.321 19.419C20.6534 18.5497 20.8196 17.5313 20.8196 16.3636C20.8196 15.196 20.6577 14.1818 20.3338 13.321C20.0099 12.4602 19.5412 11.7955 18.9276 11.3267C18.3139 10.858 17.5682 10.6236 16.6903 10.6236C15.7955 10.6236 15.0412 10.8665 14.4276 11.3523C13.8139 11.8381 13.3494 12.5114 13.0341 13.3722C12.7188 14.233 12.5611 15.2301 12.5611 16.3636C12.5611 17.5057 12.7188 18.5156 13.0341 19.3935C13.358 20.2628 13.8224 20.9446 14.4276 21.4389C15.0412 21.9247 15.7955 22.1676 16.6903 22.1676Z" fill="black"/>
<path d="M3.06818 26.517C2.22443 26.517 1.5 26.2187 0.894886 25.6222C0.298295 25.017 0 24.2926 0 23.4489C0 22.6136 0.298295 21.8977 0.894886 21.3011C1.5 20.7045 2.22443 20.4062 3.06818 20.4062C3.88636 20.4062 4.60227 20.7045 5.21591 21.3011C5.82955 21.8977 6.13636 22.6136 6.13636 23.4489C6.13636 24.0114 5.99148 24.527 5.7017 24.9957C5.42045 25.456 5.04972 25.8267 4.58949 26.108C4.12926 26.3807 3.62216 26.517 3.06818 26.517Z" fill="#0500FF"/>
</svg>
